<svg xmlns="http://www.w3.org/2000/svg" height="1200" width="1600" version="1.1" xmlns:xlink="http://www.w3.org/1999/xlink" xmlns:svgjs="http://svgjs.com/svgjs"><rect fill="#f3ebe9" width="1600" height="1200"></rect><g><path d="M1172.33 750.84C1200.25 638.5 1197.16 541.04 1165.45 533.16 1133.74 525.28 1085.4 609.97 1057.5 722.31 1029.59 834.65 1032.67 932.1 1064.38 939.98 1096.09 947.86 1144.42 863.18 1172.33 750.84Z" stroke="#231f20" stroke-width="4" stroke-linecap="round" stroke-linejoin="round" opacity="1" fill="none"></path><path d="M1264.93 881.81C1287.6 858.29 1238.44 774.1 1155.1 693.77 1071.77 613.42 985.83 567.37 963.16 590.89 940.48 614.42 989.66 698.6 1072.99 778.95 1156.32 859.28 1242.25 905.34 1264.93 881.81Z" stroke="#231f20" stroke-width="4" stroke-linecap="round" stroke-linejoin="round" opacity="1" fill="none"></path><path d="M1131.26 793.35C1242.49 761.34 1325.34 709.95 1316.31 678.54 1307.29 647.14 1209.78 647.63 1098.53 679.64 987.3 711.64 904.45 763.05 913.48 794.44 922.5 825.85 1020.01 825.35 1131.26 793.35Z" stroke="#231f20" stroke-width="4" stroke-linecap="round" stroke-linejoin="round" opacity="1" fill="none"></path><path d="M1114.91 769.46C1133.09 769.46 1147.85 754.71 1147.85 736.51 1147.85 718.32 1133.09 703.57 1114.91 703.57 1096.71 703.57 1081.96 718.32 1081.96 736.51 1081.96 754.71 1096.71 769.46 1114.91 769.46Z" fill="#900c3f" opacity="1" stroke-width="4" stroke="none"></path><path d="M977.8 678.61C987.23 678.61 994.9 670.96 994.9 661.51 994.9 652.06 987.23 644.4 977.8 644.4 968.35 644.4 960.69 652.06 960.69 661.51 960.69 670.96 968.35 678.61 977.8 678.61Z" fill="#ffffff" opacity="1" stroke-width="4" stroke="none"></path><path d="M1275.29 749.41C1284.73 749.41 1292.4 741.76 1292.4 732.31 1292.4 722.86 1284.73 715.2 1275.29 715.2 1265.84 715.2 1258.19 722.86 1258.19 732.31 1258.19 741.76 1265.84 749.41 1275.29 749.41Z" fill="#ffffff" opacity="1" stroke-width="4" stroke="none"></path><path d="M1038.36 898.16C1047.8 898.16 1055.47 890.5 1055.47 881.05 1055.47 871.61 1047.8 863.95 1038.36 863.95 1028.91 863.95 1021.26 871.61 1021.26 881.05 1021.26 890.5 1028.91 898.16 1038.36 898.16Z" fill="#ffffff" opacity="1" stroke-width="4" stroke="none"></path></g><g><path d="M377.35 251.94H707.52C733.68 251.94 754.87 277.94 754.87 310.03V713.33C754.87 745.42 733.68 771.42 707.52 771.42H377.35C351.19 771.42 330 745.42 330 713.33V309.9C330 277.94 351.19 251.94 377.35 251.94Z" fill="#000000" opacity="0.2" stroke-width="4" stroke="none"></path><path d="M398.54 225.93H728.72C754.87 225.93 776.07 251.94 776.07 284.02V687.32C776.07 719.41 754.87 745.42 728.72 745.42H398.54C372.39 745.42 351.19 719.41 351.19 687.32V283.9C351.19 251.94 372.39 225.93 398.54 225.93Z" fill="#900c3f" opacity="1" stroke-width="4" stroke="none"></path></g><g><path d="M561.43 669.12C637.68 669.12 699.49 607.31 699.49 531.06 699.49 454.8 637.68 392.99 561.43 392.99 485.17 392.99 423.36 454.8 423.36 531.06 423.36 607.31 485.17 669.12 561.43 669.12Z" fill="#404040" opacity="0.2" stroke-width="4" stroke="none"></path><path d="M561.43 649.9C644.32 649.9 711.52 582.71 711.52 499.81 711.52 416.92 644.32 349.72 561.43 349.72 478.53 349.72 411.33 416.92 411.33 499.81 411.33 582.71 478.53 649.9 561.43 649.9Z" fill="#f3ebe9" opacity="1" stroke-width="4" stroke="none"></path><path d="M623.77 544.14C617.83 544.14 611.9 543.73 606.02 542.92 583.77 539.86 566.82 524.16 562.83 502.92 559.28 483.99 567.45 466.46 584.14 457.18 589.64 454.18 595.37 451.59 601.26 449.45 610.88 445.75 617.83 443.07 627.49 430.58 629.34 428.19 631.08 425.9 632.72 423.72 644.05 408.76 651.53 398.87 668.31 394.41 696.06 422.46 711.59 460.35 711.52 499.81 711.52 502.09 711.43 504.42 711.33 507.01 702.34 519.13 669.11 544.14 623.77 544.14H623.77Z" fill="#ffc300" opacity="1" stroke-width="4" stroke="none"></path><path d="M555.92 387.19C551.67 387.18 547.46 386.32 543.54 384.65 539.63 382.98 536.09 380.54 533.13 377.49 530.17 374.43 527.86 370.81 526.32 366.84 524.79 362.87 524.06 358.64 524.19 354.38 536.38 351.3 548.9 349.73 561.47 349.73 570.19 349.73 578.89 350.49 587.47 351.99 587.96 356.17 587.6 360.41 586.42 364.46 585.23 368.5 583.25 372.26 580.57 375.52 577.59 379.17 573.83 382.12 569.57 384.14 565.3 386.16 560.64 387.2 555.92 387.19L555.92 387.19Z" fill="#ffffff" opacity="1" stroke-width="4" stroke="none"></path><path d="M561.61 649.97C538.61 649.93 515.91 644.66 495.23 634.56 493.67 627.58 493.7 620.33 495.32 613.36 496.95 606.38 500.12 599.87 504.6 594.28 508.51 589.44 513.33 585.42 518.79 582.45 524.26 579.48 530.26 577.61 536.44 576.96 542.63 576.31 548.88 576.88 554.85 578.65 560.81 580.42 566.37 583.35 571.2 587.27 580.03 594.51 585.98 604.67 587.97 615.92 589.95 627.16 587.83 638.75 582 648.57 575.24 649.5 568.43 649.97 561.62 649.97L561.61 649.97Z" fill="#ffc300" opacity="1" stroke-width="4" stroke="none"></path><path d="M614.2 515.34C609.29 515.34 604.58 513.38 601.11 509.91 597.63 506.44 595.68 501.73 595.68 496.81 595.68 491.9 597.63 487.19 601.11 483.72 604.58 480.24 609.29 478.29 614.2 478.29 619.12 478.29 623.83 480.24 627.3 483.72 630.77 487.19 632.73 491.9 632.73 496.81 632.73 501.73 630.77 506.44 627.3 509.91 623.83 513.38 619.12 515.34 614.2 515.34H614.2Z" fill="#ffffff" opacity="1" stroke-width="4" stroke="none"></path><path d="M580.09 545.71C578.28 545.71 576.49 545.3 574.86 544.52 572.37 543.33 570.36 541.33 569.17 538.84 567.97 536.36 567.65 533.54 568.27 530.85 568.89 528.16 570.41 525.76 572.57 524.05 574.73 522.34 577.41 521.41 580.17 521.43 581.98 521.42 583.76 521.83 585.39 522.61 587.89 523.79 589.91 525.79 591.12 528.28 592.32 530.77 592.64 533.59 592.02 536.28 591.41 538.98 589.89 541.38 587.72 543.09 585.55 544.81 582.86 545.73 580.09 545.71L580.09 545.71Z" fill="#ffffff" opacity="1" stroke-width="4" stroke="none"></path><path d="M692.98 490.28C683.37 490.3 674.08 486.78 666.89 480.4 659.71 474.02 655.11 465.22 653.99 455.67 652.86 446.12 655.29 436.5 660.8 428.62 666.31 420.75 674.52 415.17 683.88 412.95 700.09 433.95 709.51 459.39 710.89 485.88 705.36 488.77 699.22 490.28 692.98 490.28H692.98Z" fill="#ffffff" opacity="1" stroke-width="4" stroke="none"></path><path d="M608.27 603.93C605.82 603.91 603.44 603.18 601.4 601.83 599.36 600.48 597.76 598.58 596.78 596.34 595.81 594.1 595.5 591.62 595.9 589.21 596.3 586.8 597.39 584.56 599.04 582.75 600.69 580.95 602.82 579.66 605.19 579.05 607.55 578.43 610.04 578.52 612.36 579.29 614.68 580.06 616.73 581.48 618.25 583.39 619.78 585.3 620.72 587.61 620.96 590.04 621.12 591.69 620.96 593.35 620.48 594.92 620 596.5 619.21 597.97 618.16 599.24 616.97 600.71 615.46 601.9 613.75 602.71 612.03 603.52 610.16 603.94 608.27 603.93H608.27Z" fill="#ffc300" opacity="1" stroke-width="4" stroke="none"></path><path d="M539.27 416.96C537.03 416.96 534.86 416.2 533.1 414.81 531.54 413.54 530.42 411.83 529.87 409.89 529.33 407.96 529.4 405.91 530.07 404.01 530.74 402.12 531.98 400.48 533.61 399.32 535.25 398.16 537.21 397.53 539.21 397.53 541.65 397.53 543.99 398.45 545.78 400.09 547.58 401.73 548.7 403.99 548.92 406.41 549.05 407.66 548.92 408.91 548.55 410.11 548.18 411.31 547.58 412.42 546.77 413.39 545.87 414.51 544.73 415.42 543.43 416.04 542.13 416.66 540.71 416.97 539.27 416.96V416.96Z" fill="#ffffff" opacity="1" stroke-width="4" stroke="none"></path><path d="M484.56 587.36C482.17 587.37 479.82 586.7 477.79 585.43 475.75 584.16 474.13 582.33 473.09 580.17 472.06 578.01 471.66 575.6 471.94 573.22 472.22 570.84 473.17 568.59 474.68 566.73 475.87 565.26 477.37 564.08 479.07 563.27 480.78 562.46 482.65 562.04 484.53 562.05 487.43 562.05 490.25 563.04 492.52 564.84 493.84 565.89 494.93 567.2 495.73 568.68 496.54 570.17 497.04 571.8 497.21 573.47 497.38 575.12 497.22 576.78 496.74 578.36 496.26 579.93 495.47 581.4 494.42 582.67 493.23 584.14 491.73 585.33 490.02 586.14 488.32 586.95 486.45 587.37 484.56 587.36H484.56Z" fill="#ffffff" opacity="1" stroke-width="4" stroke="none"></path><path d="M504.45 423.31C501.06 423.31 497.78 422.14 495.13 420.02 492.77 418.08 491.07 415.45 490.25 412.51 489.43 409.56 489.54 406.43 490.57 403.55 491.59 400.67 493.48 398.18 495.98 396.41 498.47 394.64 501.45 393.69 504.51 393.68 506.46 393.68 508.39 394.06 510.18 394.81 511.98 395.55 513.62 396.65 514.99 398.03 516.37 399.41 517.46 401.04 518.2 402.84 518.94 404.64 519.32 406.57 519.32 408.52 519.32 410.47 518.93 412.4 518.18 414.2 517.43 415.99 516.33 417.63 514.95 419 513.57 420.37 511.94 421.46 510.13 422.2 508.33 422.94 506.4 423.32 504.45 423.31L504.45 423.31Z" fill="#ffffff" opacity="1" stroke-width="4" stroke="none"></path><path d="M654.86 617.23C650.62 613.36 648.02 608.02 647.58 602.3 647.14 596.58 648.9 590.9 652.49 586.43 654.34 584.14 656.62 582.24 659.21 580.84 661.79 579.44 664.63 578.57 667.55 578.27 670.48 577.97 673.43 578.25 676.25 579.1 679.06 579.95 681.68 581.34 683.96 583.2 684.46 583.59 684.93 584 685.38 584.44 679.03 593.78 671.63 602.37 663.32 610.04 660.15 612.88 657.4 615.23 654.89 617.23L654.87 617.25 654.86 617.23Z" fill="#ffffff" opacity="1" stroke-width="4" stroke="none"></path><path d="M504.21 525.18C526.64 515.89 537.29 490.18 528 467.75 518.71 445.32 492.99 434.67 470.57 443.96 448.14 453.25 437.48 478.96 446.78 501.39 456.07 523.82 481.78 534.47 504.21 525.18Z" fill="#ffc300" opacity="1" stroke-width="4" stroke="none"></path><path d="M448.48 471.34C446.35 471.34 444.28 470.71 442.52 469.53 440.75 468.35 439.38 466.68 438.57 464.72 437.75 462.76 437.54 460.6 437.96 458.52 438.37 456.44 439.39 454.53 440.89 453.03 442.39 451.53 444.3 450.51 446.38 450.09 448.46 449.68 450.62 449.89 452.58 450.71 454.54 451.52 456.21 452.89 457.39 454.66 458.57 456.42 459.2 458.49 459.2 460.61 459.2 463.46 458.07 466.18 456.06 468.2 454.04 470.21 451.32 471.34 448.48 471.34Z" fill="#ffffff" opacity="1" stroke-width="4" stroke="none"></path></g><g><path d="M736.26 283.02L714.55 264.06C712 261.81 708.23 261.81 705.68 263.96L683.25 283.02C679.99 285.77 678.05 289.95 678.05 294.23V325.33C678.05 329.1 681.11 332.16 684.88 332.16H699.97V314.32C699.97 309.02 704.35 304.63 709.65 304.63 714.95 304.63 719.34 309.02 719.34 314.32V332.16H734.43C738.2 332.16 741.26 329.1 741.26 325.33V294.13C741.26 289.85 739.42 285.77 736.26 283.02Z" fill="#f3ebe9" opacity="1" stroke-width="4" stroke="none"></path></g><g><path d="M270.2 794.13L404.48 744.53C404.65 744.53 404.81 744.53 404.65 744.7L358.68 880.3C358.68 880.46 358.51 880.46 358.35 880.3L341.05 841.08C341.05 840.92 340.88 840.92 340.72 841.08L309.74 872.88H309.58L278.6 842.9V842.73L309.58 810.93C309.58 810.77 309.58 810.77 309.58 810.6L270.2 794.62C270.2 794.45 270.2 794.29 270.2 794.13Z" fill="#000000" opacity="0.2" stroke-width="4" stroke="none"></path><path d="M270.2 760.18L404.48 710.59C404.65 710.59 404.81 710.59 404.65 710.75L358.68 846.36C358.68 846.52 358.51 846.52 358.35 846.36L341.05 807.14C341.05 806.98 340.88 806.98 340.72 807.14L309.74 838.94H309.58L278.6 808.95V808.79L309.58 776.99C309.58 776.82 309.58 776.82 309.58 776.66L270.2 760.68C270.2 760.35 270.2 760.18 270.2 760.18Z" fill="#c70039" opacity="1" stroke-width="4" stroke="none"></path></g><g><path d="M1341.76 566.38H1274.41L1248.63 587.16C1245.74 589.47 1241.6 588.99 1239.3 586.2 1238.33 585.05 1237.85 583.6 1237.85 582.06V509.71C1237.85 478.44 1263.25 453.04 1294.52 453.04H1341.76C1373.03 453.04 1398.43 478.44 1398.43 509.71 1398.53 540.98 1373.13 566.38 1341.76 566.38Z" fill="#c70039" opacity="1" stroke-width="4" stroke="none"></path><path d="M1315.59 530.5L1304.05 538.48C1301.93 539.92 1299.04 539.35 1297.6 537.33 1296.83 536.17 1296.54 534.73 1297.02 533.38L1300.97 519.91C1301.54 518.08 1300.87 516.16 1299.33 514.91L1288.17 506.35C1286.15 504.81 1285.77 501.92 1287.3 499.9 1288.17 498.84 1289.42 498.17 1290.86 498.07L1304.91 497.69C1306.84 497.59 1308.47 496.44 1309.15 494.61L1313.86 481.43C1314.73 479.02 1317.32 477.77 1319.73 478.64 1321.08 479.12 1322.04 480.18 1322.52 481.43L1327.23 494.61C1327.91 496.44 1329.54 497.59 1331.47 497.69L1345.51 498.07C1348.01 498.17 1350.04 500.28 1350.04 502.79 1350.04 504.13 1349.36 505.48 1348.21 506.35L1337.05 514.91C1335.51 516.06 1334.93 518.08 1335.41 519.91L1339.36 533.38C1340.13 535.79 1338.68 538.38 1336.28 539.15 1334.93 539.54 1333.49 539.35 1332.33 538.58L1320.79 530.59C1319.25 529.44 1317.13 529.44 1315.59 530.5Z" fill="#ffffff" opacity="1" stroke-width="4" stroke="none"></path></g><g><path d="M1182.08 241.44L1105.59 277.42C1104.84 277.8 1104.34 278.55 1104.34 279.43L1101.83 378.36C1101.83 378.86 1101.58 379.36 1101.08 379.61L1081.14 390.9C1072.11 396.16 1068.98 407.82 1074.24 416.85 1076 419.99 1078.76 422.49 1081.89 424.12 1091.17 428.89 1102.71 425.38 1107.47 415.97 1108.85 413.22 1109.6 410.33 1109.6 407.2V380.11L1111.23 321.06 1173.42 292.97 1169.54 347.51C1169.54 348.14 1169.16 348.64 1168.66 348.89L1148.35 360.3C1139.32 365.57 1136.18 377.23 1141.45 386.26 1143.21 389.39 1145.96 391.9 1149.1 393.53 1158.38 398.29 1169.91 394.78 1174.68 385.38 1176.06 382.62 1176.81 379.74 1176.81 376.6V344.25L1183.46 242.32C1183.46 241.56 1182.7 241.06 1182.08 241.44ZM1111.36 313.91L1112.11 288.21C1112.11 287.96 1112.24 287.7 1112.49 287.58L1174.68 256.99C1175.3 256.73 1175.93 257.11 1175.93 257.86L1174.05 284.07 1111.36 313.91Z" fill="#900c3f" opacity="1" stroke-width="4" stroke="none"></path></g><g><path d="M339.15 239.75L260.64 276.69C259.87 277.07 259.35 277.85 259.35 278.75L256.78 380.3C256.78 380.81 256.52 381.33 256 381.58L235.54 393.17C226.27 398.57 223.06 410.54 228.46 419.81 230.26 423.03 233.09 425.6 236.31 427.27 245.84 432.16 257.68 428.56 262.57 418.91 263.98 416.08 264.76 413.12 264.76 409.9V382.1L266.43 321.48 330.27 292.65 326.28 348.63C326.28 349.28 325.89 349.79 325.38 350.05L304.53 361.76C295.26 367.17 292.04 379.14 297.45 388.4 299.25 391.62 302.08 394.2 305.3 395.87 314.82 400.76 326.66 397.16 331.55 387.5 332.97 384.67 333.74 381.71 333.74 378.49V345.29L340.56 240.65C340.56 239.88 339.79 239.36 339.15 239.75ZM266.56 314.14L267.33 287.76C267.33 287.5 267.46 287.24 267.72 287.11L331.55 255.71C332.2 255.45 332.84 255.84 332.84 256.61L330.91 283.51 266.56 314.14Z" fill="#c70039" opacity="1" stroke-width="4" stroke="none"></path></g><g><path d="M728.26 785.29L643.58 825.13C642.75 825.55 642.2 826.38 642.2 827.35L639.42 936.87C639.42 937.43 639.14 937.98 638.59 938.26L616.52 950.75C606.52 956.58 603.05 969.49 608.88 979.48 610.82 982.95 613.88 985.73 617.35 987.54 627.62 992.81 640.39 988.92 645.67 978.51 647.19 975.46 648.03 972.27 648.03 968.8V938.81L649.83 873.43 718.68 842.34 714.38 902.72C714.38 903.42 713.96 903.97 713.4 904.25L690.92 916.88C680.92 922.71 677.45 935.62 683.28 945.62 685.23 949.09 688.28 951.86 691.75 953.67 702.02 958.94 714.79 955.05 720.07 944.64 721.59 941.59 722.43 938.4 722.43 934.93V899.11L729.78 786.26C729.78 785.43 728.95 784.87 728.26 785.29ZM649.97 865.52L650.8 837.07C650.8 836.79 650.94 836.51 651.22 836.37L720.07 802.5C720.76 802.23 721.45 802.64 721.45 803.47L719.37 832.49 649.97 865.52Z" fill="#ffc300" opacity="1" stroke-width="4" stroke="none"></path></g><g><path d="M1018.12 1055.28C1025.52 1057.09 1073.9 1031.86 1075.6 1031 1075.6 1031 1075.6 1031 1075.6 1030.91 1076.93 1005.96 1075.22 980.54 1070.67 956.07 1070.67 956.07 1070.67 955.97 1070.58 955.97L1022.96 946.39 980.37 956.44C980.27 956.44 980.27 956.54 980.27 956.54 989.38 977.31 995.93 993.82 997.63 1005.86 997.73 1006.24 1010.72 1053.48 1018.12 1055.28Z" fill="#f0c3ad" opacity="1" stroke-width="4" stroke="none"></path><path d="M878.3 1050.54C885.42 1052.25 937.97 1031.86 939.77 1031.1 939.77 1031.1 939.87 1031.1 939.87 1031 942.24 1011.84 944.8 996.09 945.27 974.37 945.37 968.3 945.08 962.14 944.89 955.88 944.89 955.88 944.89 955.78 944.8 955.78L902.68 949.99 855.82 955.59C855.73 955.59 855.73 955.69 855.73 955.69 858.2 971.05 859.9 985.28 860.09 996.95 860.09 1000.08 860.09 1002.83 860 1005.58 860 1005.68 860 1005.68 860.09 1005.68 874.23 1006.15 870.81 1048.64 878.3 1050.54Z" fill="#f0c3ad" opacity="1" stroke-width="4" stroke="none"></path><path d="M721.02 394.14C719.03 392.15 711.73 395 712.49 405.05 712.49 405.14 712.39 405.24 712.3 405.14 703.67 388.83 681.19 356.39 675.59 373.18 675.59 373.27 675.49 373.27 675.49 373.27 668 368.72 664.3 376.12 666.1 382.66 666.1 382.76 666.1 382.76 666.01 382.76 657.66 382.85 658.51 391.2 660.41 395.94V396.04C651.12 401.82 670.66 434.64 671.89 435.78 674.64 444.32 679.48 460.35 687.07 468.03 687.07 468.03 687.07 468.03 687.07 468.13 686.69 476.95 686.59 485.49 686.78 493.17 686.78 493.27 686.78 493.27 686.88 493.27L717.7 495.07C717.7 495.07 717.7 495.07 717.8 495.07L748.72 472.78V472.68C742.08 446.6 730.51 403.63 721.02 394.14Z" fill="#f0c3ad" opacity="1" stroke-width="4" stroke="none"></path><path d="M839.6 328.88C850.8 304.31 879.25 297.29 907.71 312.66 932.09 326.13 928.96 341.02 927.25 360.94 926.78 366.16 929.15 387.41 927.72 403.34 927.34 407.71 926.78 411.69 926.4 415.1L926.11 416.34 859.9 418.23C859.81 418.23 859.71 415.29 859.71 415.29L860.38 410.74C860.38 410.65 860.28 410.65 860.28 410.65 823.57 417.48 816.46 391.96 826.13 365.31V365.21C818.45 357.72 819.97 352.88 831.35 352.03 831.35 352.03 831.45 352.03 831.45 351.93 832.68 346.24 837.14 334.19 839.6 328.88Z" fill="#f0c3ad" opacity="1" stroke-width="4" stroke="none"></path><path d="M860.37 410.74L859.7 415.1V415.2L858.94 425.63C858.94 425.73 859.04 425.73 859.13 425.73L879.72 404.86C879.81 404.77 879.72 404.67 879.62 404.67 868.81 408.65 861.13 410.46 860.37 410.74 860.37 410.65 860.37 410.65 860.37 410.74Z" fill="#8f6855" opacity="0.2" stroke-width="4" stroke="none"></path><path d="M835.23 375.17C835.23 375.17 840.07 376.31 843.96 371.85" stroke="#8f6855" stroke-width="4" stroke-linecap="round" stroke-linejoin="round" opacity="1" fill="none"></path><path d="M860.37 410.65C864.16 409.7 876.02 406.47 879.62 404.77" stroke="#8f6855" stroke-width="4" stroke-linecap="round" stroke-linejoin="round" opacity="1" fill="none"></path><path d="M884.75 380.2L893.57 373.56" stroke="#8f6855" stroke-width="4" stroke-linecap="round" stroke-linejoin="round" opacity="1" fill="none"></path><path d="M844.24 349.75C848.13 349.84 848.13 355.54 844.24 355.63 840.35 355.54 840.35 349.84 844.24 349.75Z" fill="#17151c" opacity="1" stroke-width="4" stroke="none"></path><path d="M931.42 364.64C933.32 344.82 932.66 321.67 908.28 308.3 879.16 293.78 851.74 299.29 839.6 328.79V328.88C840.27 329.64 850.32 340.36 878.49 329.54 878.59 329.54 878.68 329.64 878.59 329.64 873.18 337.51 867.87 352.69 874.04 364.74 874.04 364.83 874.13 364.83 874.23 364.74 911.6 338.56 926.4 374.89 894.15 395.09 894.05 395.09 894.05 395.18 894.15 395.28 906.95 405.05 926.3 403.44 927.63 403.25L927.72 403.15C929.24 388.07 930.76 369.86 931.42 364.64Z" fill="#e7b540" opacity="1" stroke-width="4" stroke="none"></path><path d="M968.22 464.62C954.65 443.75 942.32 434.64 925.25 428L925.15 427.91 926.39 415.29C926.39 415.2 926.39 415.2 926.29 415.2H859.8C859.7 415.2 859.7 415.2 859.7 415.29L858.28 426.68C858.28 426.77 858.19 426.77 858.19 426.77 814.84 424.21 778.32 464.81 753.28 492.51 753.18 492.6 753.09 492.51 753.09 492.51 752.8 491.27 751.19 483.78 748.53 472.87 748.53 472.78 748.44 472.78 748.44 472.78L686.69 493.27 686.59 493.36C686.97 595.33 738.1 604.34 799.19 560.33 807.63 554.54 815.5 548.09 822.71 540.79 822.8 540.69 822.8 540.79 822.9 540.79L830.96 566.97 839.31 594.1 839.4 594.19 895.08 605.1 941.09 594.38H941.18L954.56 611.08C954.75 611.83 963 646.55 970.59 640.48 977.51 634.88 982.73 627.39 986.34 618.76 1006.35 571.62 983.02 487.57 968.22 464.62Z" fill="#c70039" opacity="1" stroke-width="4" stroke="none"></path><path d="M986.24 618.85C954.94 596.09 951.43 541.64 951.05 534.24 951.05 534.15 950.86 534.15 950.86 534.24 948.68 547.9 943.27 581.86 941.28 594.1V594.19L954.56 611.46C954.75 611.93 967.93 644.47 974.57 637.16 981.97 629.86 986.05 619.9 986.43 619.04 986.24 618.95 986.24 618.95 986.24 618.85Z" fill="#000000" opacity="0.2" stroke-width="4" stroke="none"></path><path d="M1048.47 886.54C1022.67 831.24 1015.27 841.95 993.35 698.63 985.67 648.45 966.7 617.05 941.18 594.1 941.18 594.1 941.18 594.1 941.09 594.1H909.88 839.31C839.31 594.1 839.21 594.1 839.21 594.19 838.74 597.42 822.14 708.21 836.65 843.76 839.78 873.26 847.18 908.07 852.78 939.47 853.82 945.16 854.77 950.18 855.53 955.69 855.53 955.69 855.53 955.78 855.62 955.78L944.6 955.88C944.69 955.88 944.69 955.88 944.69 955.78 943.46 924.19 937.77 891.09 925.15 842.14 923.07 831.43 921.26 811.22 921.64 811.22 929.42 836.45 938.81 863.3 949.82 890.14 958.73 911.96 968.79 933.96 980.07 956.44 980.07 956.44 980.07 956.54 980.17 956.54 982.54 956.54 1066.96 956.16 1070.47 956.16 1070.57 956.16 1070.57 956.07 1070.57 956.07 1066.2 931.78 1058.71 908.92 1048.47 886.54Z" fill="#ffc300" opacity="1" stroke-width="4" stroke="none"></path><path d="M1050.37 1031C1037.38 1031 1026.28 1047.7 1018.79 1045.89 1011.2 1044.09 1025.33 1029.2 1025.33 1017.15 1025.33 1006.53 1013.19 1006.05 997.82 1005.96 997.73 1005.96 997.73 1006.05 997.73 1006.05 999.15 1015.16 998.11 1022.18 993.46 1026.92 979.42 1041.72 966.33 1045.13 956.94 1059.17 956.18 1060.41 955.14 1061.73 954.66 1063.25 954.66 1063.35 954.66 1063.35 954.76 1063.35 958.93 1063.54 1064.51 1067.33 1066.69 1067.43 1066.69 1067.43 1066.69 1067.43 1066.78 1067.43L1072 1063.25C1072 1063.25 1072 1063.25 1072 1063.16 1073.71 1052.44 1074.94 1041.72 1075.51 1031 1075.51 1030.91 1075.51 1030.91 1075.41 1030.91L1050.37 1031Z" fill="#c70039" opacity="1" stroke-width="4" stroke="none"></path><path d="M904.11 656.04C913.4 656.04 918.9 648.54 916.44 639.25L911.41 620.85H877.83L882.76 639.25C885.42 648.54 894.9 656.04 904.11 656.04Z" stroke="#000000" stroke-width="4" stroke-linecap="round" stroke-linejoin="round" opacity="1" fill="none"></path><path d="M964.99 620.94H946.5L951.43 639.44C953.99 648.64 964.14 656.32 971.54 656.32 975.43 656.32 978.27 655.56 980.36 654.24" stroke="#000000" stroke-width="4" stroke-linecap="round" stroke-linejoin="round" opacity="1" fill="none"></path><path d="M839.31 594.19L941.09 594 950.86 534.24" stroke="#000000" stroke-width="4" stroke-linecap="round" stroke-linejoin="round" opacity="1" fill="none"></path><path d="M945.07 573.99L958.45 578.26" stroke="#000000" stroke-width="4" stroke-linecap="round" stroke-linejoin="round" opacity="1" fill="none"></path><path d="M753.28 492.51L760.59 484.44" stroke="#000000" stroke-width="4" stroke-linecap="round" stroke-linejoin="round" opacity="1" fill="none"></path><path d="M822.81 540.79L830.88 566.78C830.88 566.87 831.07 566.87 831.07 566.78L847.67 518.4C847.67 518.31 847.57 518.21 847.48 518.31L822.81 540.79C822.81 540.69 822.81 540.69 822.81 540.79Z" fill="#000000" opacity="0.2" stroke-width="4" stroke="none"></path><path d="M822.81 540.88L847.48 518.31" stroke="#000000" stroke-width="4" stroke-linecap="round" stroke-linejoin="round" opacity="1" fill="none"></path><path d="M858.29 426.68C858.29 426.68 851.56 426.39 846.53 427.06" stroke="#000000" stroke-width="4" stroke-linecap="round" stroke-linejoin="round" opacity="1" fill="none"></path><path d="M937.59 700.62C933.13 740.27 918.9 762.75 921.75 811.13" stroke="#000000" stroke-width="4" stroke-linecap="round" stroke-linejoin="round" opacity="1" fill="none"></path><path d="M675.5 373.18C684.99 384.56 703.01 412.92 703.01 412.92" stroke="#8f6855" stroke-width="4" stroke-linecap="round" stroke-linejoin="round" opacity="1" fill="none"></path><path d="M665.91 382.76C670.66 389.4 683.94 409.13 691.62 422.41" stroke="#8f6855" stroke-width="4" stroke-linecap="round" stroke-linejoin="round" opacity="1" fill="none"></path><path d="M660.22 396.04C660.22 396.04 674.55 420.61 681.19 431.99" stroke="#8f6855" stroke-width="4" stroke-linecap="round" stroke-linejoin="round" opacity="1" fill="none"></path><path d="M910.74 1030.62C897.74 1030.62 886.45 1047.51 879.05 1045.7 866.91 1041.81 911.97 1004.06 860.08 1005.86 859.99 1005.86 859.99 1005.86 859.99 1005.96 860.27 1039.06 819.29 1040.01 808.86 1063.25 808.86 1063.25 808.86 1063.25 808.86 1063.35 808.96 1063.63 809.52 1065.53 809.62 1065.91 809.62 1065.91 809.62 1066 809.71 1066L931.32 1066.95H931.41L934.07 1063.44C936.44 1052.82 938.43 1042 939.95 1031.29 939.95 1031.19 939.95 1031.19 939.86 1031.19 937.86 1031 910.74 1030.62 910.74 1030.62Z" fill="#c70039" opacity="1" stroke-width="4" stroke="none"></path><path d="M712.31 405.14C714.58 409.32 718.66 416.43 718.66 416.43" stroke="#8f6855" stroke-width="4" stroke-linecap="round" stroke-linejoin="round" opacity="1" fill="none"></path><path d="M850.88 1028.72L859.51 1036.5" stroke="#000000" stroke-width="4" stroke-linecap="round" stroke-linejoin="round" opacity="1" fill="none"></path><path d="M841.5 1036.5L848.14 1045.99" stroke="#000000" stroke-width="4" stroke-linecap="round" stroke-linejoin="round" opacity="1" fill="none"></path><path d="M991.85 1029.2L1000 1036.5" stroke="#000000" stroke-width="4" stroke-linecap="round" stroke-linejoin="round" opacity="1" fill="none"></path><path d="M982.73 1036.69L988.61 1045.99" stroke="#000000" stroke-width="4" stroke-linecap="round" stroke-linejoin="round" opacity="1" fill="none"></path><path d="M951.33 1076.91H1069.14C1069.14 1076.91 1069.24 1076.91 1069.24 1076.82 1069.43 1076.25 1070.66 1071.41 1071.99 1063.35 1071.99 1063.25 1071.99 1063.25 1071.9 1063.25L954.65 1063.35C954.65 1063.35 954.56 1063.35 954.56 1063.44 952.66 1067.62 951.43 1072.17 951.14 1076.82 951.24 1076.82 951.33 1076.91 951.33 1076.91Z" fill="#000000" opacity="1" stroke-width="4" stroke="none"></path><path d="M808.77 1063.35C806.87 1067.62 805.73 1072.26 805.54 1076.82 805.54 1076.91 805.54 1076.91 805.64 1076.91H930.37C930.37 1076.91 930.47 1076.91 930.47 1076.82 930.66 1076.25 931.89 1071.79 933.88 1063.35 933.88 1063.25 933.88 1063.25 933.79 1063.25 929.8 1062.97 811.8 1063.35 808.77 1063.35 808.77 1063.25 808.77 1063.25 808.77 1063.35Z" fill="#000000" opacity="1" stroke-width="4" stroke="none"></path><path d="M921.75 811.22C925.54 823.36 930.29 838.63 935.41 852.29 939.96 864.62 945.27 879.14 949.73 889.67 949.73 889.76 949.92 889.76 949.92 889.67 949.26 879.33 939.68 729.17 937.59 700.81 937.59 700.71 937.4 700.71 937.4 700.81 933.89 736.48 920.52 768.92 921.75 811.22Z" fill="#000000" opacity="0.2" stroke-width="4" stroke="none"></path></g></svg>